<?xml version="1.0" standalone="no"?>
<!DOCTYPE svg PUBLIC "-//W3C//DTD SVG 20010904//EN"
 "http://www.w3.org/TR/2001/REC-SVG-20010904/DTD/svg10.dtd">
<svg version="1.0" xmlns="http://www.w3.org/2000/svg"
 width="231.000000pt" height="407.000000pt" viewBox="0 0 231.000000 407.000000"
 preserveAspectRatio="xMidYMid meet">

<g transform="translate(0.000000,407.000000) scale(0.100000,-0.100000)"
fill="#000000" stroke="none">
<path d="M205 3986 c-18 -13 -18 -20 -4 -177 21 -242 19 -1139 -3 -1304 -9
-66 -20 -128 -23 -137 -7 -17 8 -18 215 -18 l222 0 -6 23 c-4 12 -14 78 -23
147 -14 102 -17 220 -17 635 -1 470 8 687 31 782 3 14 -3 29 -16 42 -20 20
-32 21 -189 21 -126 0 -173 -3 -187 -14z"/>
<path d="M1789 3981 c-22 -18 -22 -20 -11 -113 43 -347 36 -1226 -12 -1456
l-13 -62 223 0 223 0 -9 28 c-35 104 -58 718 -42 1114 7 156 17 325 24 377 16
132 18 131 -197 131 -144 0 -165 -2 -186 -19z"/>
<path d="M989 3514 c-10 -12 -10 -37 0 -137 32 -303 30 -1098 -4 -1354 -8 -63
-17 -119 -20 -124 -4 -5 81 -9 215 -9 l222 0 -6 24 c-52 209 -63 1161 -16
1504 16 116 23 112 -194 112 -154 0 -186 -3 -197 -16z"/>
<path d="M180 2118 c44 -170 56 -1075 20 -1446 -18 -178 -31 -167 196 -167
164 0 177 1 190 20 9 12 13 32 10 50 -24 136 -31 300 -31 760 1 406 4 527 18
641 9 77 19 148 23 157 6 16 -13 17 -214 17 l-220 0 8 -32z"/>
<path d="M1759 2127 c54 -142 67 -1112 20 -1495 -16 -132 -24 -127 196 -127
221 0 213 -6 196 137 -25 217 -34 638 -22 973 11 315 23 453 41 508 l9 27
-224 0 -225 0 9 -23z"/>
<path d="M965 1680 c16 -26 36 -256 46 -539 11 -319 0 -785 -21 -946 -21 -160
-27 -155 194 -155 217 0 213 -2 197 122 -45 342 -36 1273 13 1476 l13 52 -224
0 c-144 0 -222 -4 -218 -10z"/>
</g>
</svg>
